<svg width="773" height="625" viewBox="0 0 773 625" fill="none" xmlns="http://www.w3.org/2000/svg">
<path fill-rule="evenodd" clip-rule="evenodd" d="M85.1619 511.194C67.0078 495.861 30.6793 500.979 24.2166 478.825C17.8757 457.087 51.5921 448.608 61.4573 429.933C70.1625 413.453 63.6431 389.117 77.8777 377.241C92.9181 364.692 116.26 360.406 136.414 367.394C155.799 374.114 161.173 400.044 178.247 412.039C200.915 427.963 238.155 423.042 250.456 447.51C262.173 470.816 240.094 493.639 230.31 515.596C220.654 537.267 215.967 564.949 193.99 574.233C172.213 583.433 144.201 574.26 121.953 561.372C103.594 550.738 101.463 524.962 85.1619 511.194Z" fill="#708C74"/>
<path fill-rule="evenodd" clip-rule="evenodd" d="M644.524 428.111C614.179 486.085 585.594 556.481 516.208 563.568C441.485 571.201 358.071 526.657 314.169 461.856C275.547 404.848 318.749 343.376 324.003 279.867C329.748 210.423 288.622 121.149 345.52 82.8699C404.834 42.9656 495.993 76.9527 564.201 118.271C621.849 153.192 650.129 215.281 666.155 277.1C680.203 331.287 668.802 381.729 644.524 428.111Z" fill="#E0F0A1"/>
<path fill-rule="evenodd" clip-rule="evenodd" d="M347.118 94.061C398.387 100.02 445.863 116.74 489.663 144.05C536.608 173.322 584.861 205.093 606.713 255.926C629.673 309.333 633.453 372.443 610.876 426.014C589.126 477.627 534.71 503.274 488.9 535.486C443.935 567.104 401.932 607.432 347.118 611.482C290.28 615.682 233.107 594.037 189.254 557.627C147.028 522.568 127.109 469.46 112.376 416.584C98.2125 365.75 95.933 313.847 106.951 262.24C119.083 205.408 130.691 141.187 178.285 107.859C225.702 74.6555 289.623 87.3784 347.118 94.061Z" fill="#AFD99C"/>
</svg>
