<svg width="773" height="625" viewBox="0 0 773 625" fill="none" xmlns="http://www.w3.org/2000/svg">
<path fill-rule="evenodd" clip-rule="evenodd" d="M85.1619 511.194C67.0078 495.861 30.6793 500.979 24.2167 478.825C17.8757 457.087 51.5921 448.608 61.4573 429.933C70.1625 413.453 63.6431 389.117 77.8777 377.241C92.9181 364.692 116.26 360.406 136.414 367.394C155.799 374.114 161.173 400.044 178.247 412.039C200.915 427.963 238.155 423.042 250.456 447.51C262.173 470.816 240.094 493.639 230.31 515.596C220.654 537.267 215.967 564.949 193.99 574.233C172.213 583.433 144.201 574.26 121.953 561.372C103.594 550.738 101.463 524.962 85.1619 511.194Z" fill="#708C74"/>
<path fill-rule="evenodd" clip-rule="evenodd" d="M644.524 428.111C614.179 486.085 585.594 556.481 516.208 563.568C441.485 571.201 358.071 526.657 314.169 461.856C275.547 404.848 318.75 343.376 324.003 279.867C329.748 210.423 288.622 121.149 345.52 82.8699C404.834 42.9656 495.993 76.9527 564.201 118.271C621.849 153.192 650.129 215.281 666.155 277.1C680.203 331.287 668.802 381.729 644.524 428.111Z" fill="#E0F0A1"/>
<path fill-rule="evenodd" clip-rule="evenodd" d="M347.118 94.061C398.387 100.02 445.863 116.74 489.663 144.05C536.608 173.322 584.861 205.093 606.713 255.926C629.673 309.333 633.453 372.443 610.876 426.014C589.126 477.627 534.71 503.274 488.9 535.486C443.935 567.104 401.933 607.432 347.118 611.482C290.28 615.682 233.107 594.037 189.254 557.627C147.028 522.568 127.109 469.46 112.376 416.584C98.2125 365.75 95.933 313.847 106.951 262.24C119.083 205.408 130.691 141.187 178.285 107.859C225.702 74.6555 289.623 87.3784 347.118 94.061Z" fill="#AFD99C"/>
<g clip-path="url(#clip0)">
<path d="M434.667 527.676C428.383 522.377 424.566 514.006 425.567 505.857C426.568 497.708 432.768 490.216 440.81 488.486C448.853 486.755 458.02 491.545 460.463 499.385C461.807 484.27 463.357 468.522 471.409 455.65C478.701 443.995 491.33 435.655 505.017 434.164C518.704 432.672 533.115 438.307 541.651 449.087C550.188 459.868 552.278 475.541 546.299 487.918C541.895 497.036 533.781 503.821 525.279 509.342C497.808 527.03 464.86 534.223 432.497 529.598" fill="#F2F2F2"/>
<path d="M376.43 530H340.57C339.359 529.999 338.197 529.658 337.34 529.051C336.483 528.444 336.001 527.621 336 526.763V290.237C336.001 289.379 336.483 288.556 337.34 287.949C338.197 287.342 339.359 287.001 340.57 287H376.43C377.641 287.001 378.803 287.342 379.66 287.949C380.517 288.556 380.999 289.379 381 290.237V526.763C380.999 527.621 380.517 528.444 379.66 529.051C378.803 529.658 377.641 529.999 376.43 530Z" fill="white"/>
<path d="M291.43 530H255.57C254.359 529.999 253.197 529.786 252.34 529.406C251.483 529.027 251.001 528.512 251 527.975V380.025C251.001 379.488 251.483 378.973 252.34 378.594C253.197 378.214 254.359 378.001 255.57 378H291.43C292.641 378.001 293.803 378.214 294.66 378.594C295.517 378.973 295.999 379.488 296 380.025V527.975C295.999 528.512 295.517 529.027 294.66 529.406C293.803 529.786 292.641 529.999 291.43 530Z" fill="white"/>
<path d="M528.116 438.619C516.823 447.799 506.462 458.065 497.184 469.271C482.664 486.747 470.915 506.341 462.344 527.371C461.717 528.905 464.213 529.573 464.834 528.056C478.856 493.878 501.241 463.755 529.942 440.441C531.231 439.393 529.395 437.58 528.116 438.619Z" fill="white"/>
<path class="card-bg" d="M206.998 531.303H171.358C170.154 531.301 168.999 530.823 168.148 529.973C167.296 529.124 166.817 527.972 166.816 526.77V452.849C166.817 451.648 167.296 450.496 168.148 449.646C168.999 448.796 170.154 448.318 171.358 448.317H206.998C208.202 448.318 209.356 448.796 210.208 449.646C211.059 450.496 211.538 451.648 211.54 452.849V526.77C211.538 527.972 211.059 529.124 210.208 529.973C209.356 530.823 208.202 531.301 206.998 531.303Z" fill="#2C9E1C"/>
<path d="M291.554 532H255.914C254.525 531.998 253.193 531.447 252.21 530.466C251.227 529.486 250.675 528.156 250.673 526.77V383.113C250.675 381.727 251.227 380.397 252.21 379.417C253.193 378.436 254.525 377.885 255.914 377.883H291.554C292.943 377.885 294.275 378.436 295.258 379.417C296.24 380.397 296.793 381.727 296.795 383.113V526.77C296.793 528.156 296.24 529.486 295.258 530.466C294.275 531.447 292.943 531.998 291.554 532V532ZM255.914 379.278C254.895 379.279 253.918 379.683 253.198 380.403C252.477 381.122 252.072 382.096 252.071 383.113V526.77C252.072 527.787 252.477 528.762 253.198 529.481C253.918 530.2 254.895 530.604 255.914 530.605H291.554C292.573 530.604 293.55 530.2 294.27 529.481C294.991 528.762 295.396 527.787 295.397 526.77V383.113C295.396 382.096 294.991 381.122 294.27 380.403C293.55 379.683 292.573 379.279 291.554 379.278H255.914Z" fill="#3F3D56"/>
<path d="M376.11 532H340.47C339.081 531.998 337.749 531.447 336.766 530.466C335.783 529.486 335.231 528.156 335.229 526.77V291.759C335.231 290.372 335.783 289.043 336.766 288.062C337.749 287.082 339.081 286.53 340.47 286.529H376.11C377.499 286.53 378.831 287.082 379.814 288.062C380.797 289.043 381.349 290.372 381.351 291.759V526.77C381.349 528.156 380.797 529.486 379.814 530.466C378.831 531.447 377.499 531.998 376.11 532V532ZM340.47 287.924C339.451 287.925 338.474 288.329 337.754 289.048C337.033 289.767 336.628 290.742 336.627 291.759V526.77C336.628 527.787 337.033 528.762 337.754 529.481C338.474 530.2 339.451 530.604 340.47 530.605H376.11C377.129 530.604 378.106 530.2 378.826 529.481C379.547 528.762 379.952 527.787 379.953 526.77V291.759C379.952 290.742 379.547 289.767 378.826 289.048C378.106 288.329 377.129 287.925 376.11 287.924H340.47Z" fill="#3F3D56"/>
<path d="M461.455 531.651H425.816C424.611 531.65 423.457 531.172 422.605 530.322C421.754 529.472 421.275 528.32 421.273 527.118V195.872C421.275 194.67 421.754 193.518 422.605 192.668C423.457 191.818 424.611 191.34 425.816 191.339H461.455C462.659 191.34 463.814 191.818 464.665 192.668C465.517 193.518 465.996 194.67 465.997 195.872V527.118C465.996 528.32 465.517 529.472 464.665 530.322C463.814 531.172 462.659 531.65 461.455 531.651Z" fill="#2C9E1C"/>
<path d="M239.801 327.064C239.93 326.047 239.834 325.014 239.52 324.038C239.206 323.062 238.682 322.166 237.983 321.414C237.285 320.663 236.43 320.073 235.478 319.686C234.527 319.3 233.502 319.126 232.476 319.178L220.053 296.438L217.258 306.201L225.769 327.042C225.97 328.756 226.794 330.337 228.086 331.486C229.377 332.634 231.045 333.27 232.775 333.272C234.505 333.275 236.175 332.645 237.47 331.5C238.765 330.356 239.594 328.778 239.801 327.064V327.064Z" fill="#FFE2F0"/>
<path d="M144.089 416.853L151.008 421.894L173.786 397.658L163.574 390.218L144.089 416.853Z" fill="#FFE2F0"/>
<path d="M159.662 438.028L137.916 422.184L144.05 413.799L157.394 423.522C159.623 425.145 161.114 427.585 161.539 430.306C161.964 433.026 161.289 435.804 159.662 438.028V438.028L159.662 438.028Z" fill="#2F2E41"/>
<path d="M180.697 443.536L189.264 443.536L193.339 410.559L180.695 410.56L180.697 443.536Z" fill="#FFE2F0"/>
<path d="M205.787 451.474L178.861 451.475L178.861 441.094L195.383 441.093C198.142 441.093 200.789 442.187 202.74 444.133C204.691 446.08 205.787 448.721 205.787 451.474V451.474V451.474Z" fill="#2F2E41"/>
<path d="M206.427 314.918C206.427 314.918 210.619 355.365 200.137 383.259L192.45 436.258H179.173L180.571 373.496L175.679 317.707C175.679 317.707 185.462 292.602 206.427 314.918Z" fill="#2F2E41"/>
<path d="M161.004 317.707L174.98 365.825L147.727 409.061L161.353 420.568L192.451 372.101L183.366 312.825L161.004 317.707Z" fill="#2F2E41"/>
<path d="M196.646 209.807C206.125 209.807 213.81 202.138 213.81 192.679C213.81 183.219 206.125 175.551 196.646 175.551C187.167 175.551 179.483 183.219 179.483 192.679C179.483 202.138 187.167 209.807 196.646 209.807Z" fill="#FFE2F0"/>
<path d="M182.318 216.241C182.318 216.241 192.8 209.267 204.68 224.609L207.824 321.194C207.824 321.194 198.74 308.641 179.872 320.496C161.004 332.352 156.811 319.102 156.811 319.102C156.811 319.102 143.534 219.379 182.318 216.241Z" fill="#CCCCCC"/>
<path d="M203.834 224.366C206.849 224.528 209.697 225.798 211.83 227.93C213.964 230.062 215.232 232.906 215.39 235.914L217.608 277.957L232.283 317.707L223.897 324.681L196.643 277.26L191.064 238.282C190.808 236.496 190.952 234.675 191.486 232.951C192.02 231.227 192.931 229.642 194.152 228.311C195.373 226.98 196.875 225.936 198.549 225.254C200.223 224.572 202.028 224.268 203.834 224.366V224.366Z" fill="#CCCCCC"/>
<path d="M184.035 205.527C186.84 208.509 192.051 206.908 192.417 202.833C192.446 202.517 192.444 202.199 192.411 201.883C192.222 200.078 191.177 198.439 191.427 196.533C191.484 196.059 191.661 195.607 191.942 195.22C194.178 192.232 199.427 196.556 201.537 193.852C202.831 192.193 201.31 189.582 202.303 187.728C203.613 185.281 207.495 186.488 209.929 185.148C212.638 183.658 212.476 179.511 210.693 176.988C208.518 173.912 204.706 172.271 200.942 172.034C197.177 171.798 193.438 172.813 189.923 174.18C185.93 175.733 181.97 177.88 179.513 181.384C176.524 185.645 176.236 191.374 177.731 196.357C178.64 199.388 181.743 203.091 184.035 205.527Z" fill="#2F2E41"/>
</g>
<defs>
<clipPath id="clip0">
<rect width="454" height="360" fill="white" transform="translate(96 172)"/>
</clipPath>
</defs>
</svg>
